<svg data-v-d3f97b9e="" xmlns="http://www.w3.org/2000/svg" viewBox="0 0 130.11428833007812 60"><!----><!----><!----><g data-v-d3f97b9e="" id="1fa9884f-67c1-4649-b1df-fb6c1d972f51" fill="white" transform="matrix(5.714285714285714,0,0,5.714285714285714,-7.085714101791382,-11.99999993188041)"><path d="M7.26 3.66L7.26 2.10L1.24 2.10L1.24 12.60L2.96 12.60L2.96 8.14L6.69 8.14L6.69 6.56L2.96 6.56L2.96 3.66ZM14.96 2.10L12.13 10.43L9.28 2.10L7.37 2.10L11.17 12.60L13.07 12.60L16.87 2.10ZM24.01 3.66L24.01 2.10L17.99 2.10L17.99 12.60L24.01 12.60L24.01 11.04L19.71 11.04L19.71 8.14L23.43 8.14L23.43 6.56L19.71 6.56L19.71 3.66Z"></path></g><!----><!----></svg>